<?xml version="1.0" encoding="UTF-8"?><svg id="Layer_1" xmlns="http://www.w3.org/2000/svg" viewBox="0 0 3183 503"><path d="M343.47,161.98c0,45.75-14.55,81.79-42.97,108.82-28.42,27.03-67.23,40.9-117.14,40.9H93.25v185.76H-.32V7.41H183.36c49.91,0,88.72,13.86,117.14,41.59,28.42,27.73,42.97,65.15,42.97,112.98Zm-92.88,0c0-23.57-6.24-42.28-18.72-54.76-12.47-12.47-30.5-18.71-53.37-18.71H93.25V229.9h85.26c22.18,0,40.2-6.24,52.68-18.02,12.48-11.78,19.41-28.42,19.41-49.91Z"/><path d="M489.72,7.41V78.11h-89.41V7.41h89.41Zm-.69,121.3V497.46h-87.34V128.71h87.34Z"/><path d="M568.74,385.17V7.41h88.03V379.62c0,15.25,2.77,26.34,8.31,32.58,5.55,6.24,13.86,9.01,26.34,9.01h29.8v76.24h-40.2c-35.35,0-63.07-9.7-82.48-29.11-19.41-19.41-29.8-47.13-29.8-83.18Z"/><path d="M1051.16,254.86v242.6h-85.26v-31.88c-12.48,12.47-24.95,22.18-38.12,27.72-13.17,5.55-29.11,8.32-49.21,8.32-38.12,0-67.23-10.4-88.03-30.5-20.79-20.1-31.19-48.52-31.19-84.56,0-33.27,11.09-58.92,33.27-78.32,22.18-19.41,53.37-28.42,92.88-28.42h78.33v-29.11c0-39.51-19.41-58.92-58.92-58.92-16.64,0-29.8,4.16-39.51,12.48-9.7,8.31-14.56,18.71-14.56,32.58v2.08h-81.79v-2.77c0-34.66,12.47-61.69,36.74-81.79,24.26-20.1,58.22-30.5,99.81-30.5,47.13,0,82.48,11.09,107.44,33.27,24.95,22.18,38.12,54.76,38.12,97.73Zm-87.34,111.6v-26.34h-63.77c-36.74,0-55.45,14.56-55.45,44.36s18.02,46.44,54.07,46.44c22.87,0,39.51-5.55,49.91-15.94s15.25-27.03,15.25-48.52Z"/><path d="M1213.36,128.71v38.12c9.01-15.94,20.79-27.03,36.04-34.66,15.25-7.63,32.58-11.79,51.29-11.79,11.09,0,20.79,.69,29.8,2.77v82.48c-16.64-5.54-31.19-7.62-43.67-7.62-21.49,0-38.81,6.93-51.98,20.1-13.17,13.17-19.41,33.27-19.41,58.23v221.11h-88.03V128.71h85.95Z"/><path d="M1532.2,195.94C1532.2,65.63,1591.81,.47,1711.72,.47c53.37,0,96.34,14.55,128.23,42.97,31.88,28.42,47.13,68.62,47.13,119.91v4.85h-92.88v-4.16c0-24.95-6.93-45.05-21.49-59.61-14.56-14.56-35.35-22.18-61.69-22.18-29.8,0-51.29,9.01-64.46,27.72-13.17,18.72-20.8,48.52-20.8,90.8v106.05c0,39.51,7.63,67.93,21.49,85.95,13.86,18.02,35.35,27.03,65.15,27.03,26.34,0,47.13-6.93,61-20.8,13.86-13.86,20.8-33.96,20.8-58.23v-5.54h91.5v4.85c0,52.68-15.25,92.19-46.44,120.61-31.19,28.42-74.17,42.28-128.92,42.28-118.53,0-178.14-64.46-178.14-194.77v-112.29Z"/><path d="M1960.55,385.17V7.41h88.03V379.62c0,15.25,2.77,26.34,8.32,32.58,5.54,6.24,13.86,9.01,26.34,9.01h29.8v76.24h-40.2c-35.35,0-63.08-9.7-82.49-29.11-19.41-19.41-29.8-47.13-29.8-83.18Z"/><path d="M2157.4,347.04v-68.62c0-52.68,13.17-91.49,40.2-116.45,27.03-24.96,63.07-38.12,109.52-38.12s82.48,13.17,108.82,38.12c26.34,24.95,39.51,63.77,39.51,116.45v68.62c0,52.68-13.17,92.19-39.51,117.14-26.34,24.95-63.08,37.43-108.82,37.43s-82.49-12.48-109.52-37.43c-27.03-24.95-40.2-64.46-40.2-117.14Zm210.72-67.23c0-51.29-20.1-77.63-61-77.63s-62.38,26.34-62.38,77.63v66.54c0,51.29,20.79,77.63,62.38,77.63s61-26.34,61-77.63v-66.54Z"/><path d="M2525.46,128.71h88.03v215.57c0,26.34,4.16,45.75,11.78,58.91,7.63,13.17,23.57,20.8,46.44,20.8s38.82-6.93,46.44-19.41c7.63-12.48,11.79-32.58,11.79-60.3V128.71h88.03v219.73c0,51.29-11.78,89.41-36.04,115.06-24.26,25.65-61,38.12-110.21,38.12-97.73,0-146.25-51.29-146.25-153.18V128.71Z"/><path d="M2887.97,349.12v-72.78c0-51.29,11.79-89.42,33.96-114.37,22.18-24.96,51.29-38.12,87.34-38.12s65.85,14.56,85.95,42.28V7.41h87.34V497.46h-85.95v-33.96c-20.1,25.65-49.21,38.12-86.64,38.12-35.35,0-64.46-12.48-87.34-38.12-22.87-25.64-34.66-63.07-34.66-114.37Zm207.25-2.77v-66.54c0-24.96-5.55-44.36-15.94-57.53-10.4-13.17-25.65-20.1-44.36-20.1-39.51,0-58.92,26.34-58.92,77.63v66.54c0,51.29,18.71,77.63,56.84,77.63,20.1,0,35.35-6.93,46.44-20.1s15.94-32.58,15.94-57.53Z"/></svg>