<?xml version="1.0" encoding="utf-8"?>
<!-- Generator: Adobe Illustrator 26.4.1, SVG Export Plug-In . SVG Version: 6.00 Build 0)  -->
<svg version="1.1" id="Layer_1" xmlns="http://www.w3.org/2000/svg" xmlns:xlink="http://www.w3.org/1999/xlink" x="0px" y="0px"
	 viewBox="0 0 3183 503" style="enable-background:new 0 0 3183 503;" xml:space="preserve">
<style type="text/css">
	.st0{fill:#FFFFFF;}
</style>
<path class="st0" d="M343.5,162c0,45.8-14.5,81.8-43,108.8s-67.2,40.9-117.1,40.9H93.2v185.8H-0.3V7.4h183.7
	c49.9,0,88.7,13.9,117.1,41.6C328.9,76.7,343.5,114.2,343.5,162L343.5,162z M250.6,162c0-23.6-6.2-42.3-18.7-54.8
	c-12.5-12.5-30.5-18.7-53.4-18.7H93.2v141.4h85.3c22.2,0,40.2-6.2,52.7-18S250.6,183.5,250.6,162L250.6,162z"/>
<path class="st0" d="M489.7,7.4v70.7h-89.4V7.4H489.7z M489,128.7v368.8h-87.3V128.7H489z"/>
<path class="st0" d="M568.7,385.2V7.4h88v372.2c0,15.2,2.8,26.3,8.3,32.6c5.5,6.2,13.9,9,26.3,9h29.8v76.2H681
	c-35.3,0-63.1-9.7-82.5-29.1C579.1,448.9,568.7,421.2,568.7,385.2L568.7,385.2z"/>
<path class="st0" d="M1051.2,254.9v242.6h-85.3v-31.9c-12.5,12.5-25,22.2-38.1,27.7c-13.2,5.5-29.1,8.3-49.2,8.3
	c-38.1,0-67.2-10.4-88-30.5c-20.8-20.1-31.2-48.5-31.2-84.6c0-33.3,11.1-58.9,33.3-78.3c22.2-19.4,53.4-28.4,92.9-28.4h78.3v-29.1
	c0-39.5-19.4-58.9-58.9-58.9c-16.6,0-29.8,4.2-39.5,12.5c-9.7,8.3-14.6,18.7-14.6,32.6v2.1h-81.8v-2.8c0-34.7,12.5-61.7,36.7-81.8
	c24.3-20.1,58.2-30.5,99.8-30.5c47.1,0,82.5,11.1,107.4,33.3C1038,179.3,1051.2,211.9,1051.2,254.9L1051.2,254.9z M963.8,366.5
	v-26.3h-63.8c-36.7,0-55.5,14.6-55.5,44.4s18,46.4,54.1,46.4c22.9,0,39.5-5.5,49.9-15.9S963.8,387.9,963.8,366.5L963.8,366.5z"/>
<path class="st0" d="M1213.4,128.7v38.1c9-15.9,20.8-27,36-34.7s32.6-11.8,51.3-11.8c11.1,0,20.8,0.7,29.8,2.8v82.5
	c-16.6-5.5-31.2-7.6-43.7-7.6c-21.5,0-38.8,6.9-52,20.1c-13.2,13.2-19.4,33.3-19.4,58.2v221.1h-88V128.7H1213.4L1213.4,128.7z"/>
<path class="st0" d="M1532.2,195.9c0-130.3,59.6-195.5,179.5-195.5c53.4,0,96.3,14.6,128.2,43c31.9,28.4,47.1,68.6,47.1,119.9v4.9
	h-92.9V164c0-24.9-6.9-45.1-21.5-59.6c-14.6-14.6-35.3-22.2-61.7-22.2c-29.8,0-51.3,9-64.5,27.7c-13.2,18.7-20.8,48.5-20.8,90.8v106
	c0,39.5,7.6,67.9,21.5,86c13.9,18,35.3,27,65.2,27c26.3,0,47.1-6.9,61-20.8c13.9-13.9,20.8-34,20.8-58.2v-5.5h91.5v4.9
	c0,52.7-15.2,92.2-46.4,120.6c-31.2,28.4-74.2,42.3-128.9,42.3c-118.5,0-178.1-64.5-178.1-194.8L1532.2,195.9L1532.2,195.9z"/>
<path class="st0" d="M1960.6,385.2V7.4h88v372.2c0,15.2,2.8,26.3,8.3,32.6c5.5,6.2,13.9,9,26.3,9h29.8v76.2h-40.2
	c-35.3,0-63.1-9.7-82.5-29.1C1970.9,448.9,1960.6,421.2,1960.6,385.2L1960.6,385.2z"/>
<path class="st0" d="M2157.4,347v-68.6c0-52.7,13.2-91.5,40.2-116.4s63.1-38.1,109.5-38.1s82.5,13.2,108.8,38.1
	s39.5,63.8,39.5,116.4V347c0,52.7-13.2,92.2-39.5,117.1c-26.3,25-63.1,37.4-108.8,37.4s-82.5-12.5-109.5-37.4
	C2170.6,439.2,2157.4,399.7,2157.4,347L2157.4,347z M2368.1,279.8c0-51.3-20.1-77.6-61-77.6s-62.4,26.3-62.4,77.6v66.5
	c0,51.3,20.8,77.6,62.4,77.6s61-26.3,61-77.6V279.8z"/>
<path class="st0" d="M2525.5,128.7h88v215.6c0,26.3,4.2,45.8,11.8,58.9c7.6,13.2,23.6,20.8,46.4,20.8s38.8-6.9,46.4-19.4
	c7.6-12.5,11.8-32.6,11.8-60.3V128.7h88v219.7c0,51.3-11.8,89.4-36,115.1s-61,38.1-110.2,38.1c-97.7,0-146.2-51.3-146.2-153.2
	L2525.5,128.7L2525.5,128.7z"/>
<path class="st0" d="M2888,349.1v-72.8c0-51.3,11.8-89.4,34-114.4c22.2-25,51.3-38.1,87.3-38.1s65.9,14.6,85.9,42.3V7.4h87.3v490
	h-85.9v-34c-20.1,25.6-49.2,38.1-86.6,38.1c-35.4,0-64.5-12.5-87.3-38.1C2899.8,437.9,2888,400.4,2888,349.1L2888,349.1z
	 M3095.2,346.4v-66.5c0-25-5.6-44.4-15.9-57.5c-10.4-13.2-25.6-20.1-44.4-20.1c-39.5,0-58.9,26.3-58.9,77.6v66.5
	c0,51.3,18.7,77.6,56.8,77.6c20.1,0,35.4-6.9,46.4-20.1S3095.2,371.3,3095.2,346.4z"/>
</svg>
